<?xml version="1.0" encoding="UTF-8"?>
<svg id="Layer_2" data-name="Layer 2" xmlns="http://www.w3.org/2000/svg" viewBox="0 0 709.53 241.7">
  <defs>
    <style>
      .cls-1 {
        fill: #c29e93;
      }

      .cls-2 {
        fill: #d3d3d3;
      }
    </style>
  </defs>
  <g id="Layer_2-2" data-name="Layer 2">
    <g>
      <path class="cls-2" d="M55.25,0v239.11H0V0h55.25Z"/>
      <path class="cls-2" d="M91.56,99.84c7-14,16.53-24.77,28.6-32.31,12.06-7.54,25.53-11.31,40.39-11.31,12.71,0,23.86,2.58,33.44,7.75,9.58,5.17,16.96,11.96,22.13,20.36v-25.53h55.25v180.3h-55.25v-25.53c-5.39,8.4-12.87,15.19-22.46,20.36-9.59,5.17-20.74,7.76-33.44,7.76-14.65,0-28.01-3.82-40.07-11.47-12.07-7.64-21.6-18.52-28.6-32.63-7-14.11-10.5-30.42-10.5-48.95s3.5-34.79,10.5-48.79ZM204.65,116.32c-7.65-7.97-16.96-11.96-27.95-11.96s-20.31,3.93-27.95,11.79c-7.65,7.87-11.47,18.69-11.47,32.47s3.82,24.72,11.47,32.8c7.64,8.08,16.96,12.12,27.95,12.12s20.3-3.98,27.95-11.96c7.64-7.97,11.47-18.85,11.47-32.64s-3.83-24.66-11.47-32.64Z"/>
      <path class="cls-2" d="M567.51,230.39c-14.11-7.54-25.2-18.31-33.28-32.31-8.08-14-12.12-30.37-12.12-49.11s4.09-34.84,12.28-48.95c8.18-14.11,19.39-24.93,33.6-32.47,14.22-7.54,30.16-11.31,47.82-11.31s33.6,3.77,47.82,11.31c14.22,7.54,25.42,18.37,33.61,32.47,8.18,14.11,12.28,30.43,12.28,48.95s-4.15,34.85-12.44,48.95c-8.29,14.11-19.6,24.94-33.93,32.47-14.33,7.54-30.32,11.31-47.98,11.31s-33.55-3.77-47.66-11.31ZM642.15,182.24c7.43-7.76,11.15-18.85,11.15-33.28s-3.61-25.53-10.82-33.28c-7.22-7.75-16.11-11.63-26.66-11.63s-19.71,3.83-26.82,11.47c-7.11,7.65-10.66,18.8-10.66,33.44s3.5,25.53,10.5,33.28c7,7.76,15.78,11.63,26.33,11.63s19.55-3.88,26.98-11.63Z"/>
      <g>
        <path class="cls-1" d="M433.46,104.37l-41.63,49.37-26.6,31.54-6.98,8.27h-60.39l66.82-80.93c2.71-3.28.37-8.25-3.89-8.25h72.67Z"/>
        <path class="cls-2" d="M512.41,58.81v42.1c0,1.19-.42,2.34-1.18,3.25l-.18.21h-213.88v-45.56h215.24Z"/>
        <path class="cls-1" d="M446.68,193.55h-71.23l66.82-80.93,6.82-8.25h61.96l-68.22,80.89c-2.77,3.28-.44,8.29,3.85,8.29Z"/>
        <path class="cls-2" d="M504.78,193.55v45.57h-208.25v-42.13c0-.15.01-.3.02-.45.03-.29.08-.57.15-.85.07-.28.17-.55.29-.81.12-.27.26-.52.43-.76.08-.12.17-.24.26-.35l.18-.22h206.92Z"/>
      </g>
    </g>
  </g>
</svg>