<?xml version="1.0" encoding="UTF-8"?>
<svg id="Layer_2" data-name="Layer 2" xmlns="http://www.w3.org/2000/svg" viewBox="0 0 347.48 290.23">
  <defs>
    <style>
      .cls-1 {
        fill: #c1351a;
      }

      .cls-2 {
        fill: #903b2e;
      }
    </style>
  </defs>
  <g id="Layer_2-2" data-name="Layer 2">
    <g>
      <path class="cls-2" d="M220.4,73.33l-67.01,79.47-42.82,50.77-11.23,13.31H2.14L109.69,86.61c4.36-5.28.6-13.28-6.26-13.28h116.97Z"/>
      <path class="cls-1" d="M347.48,0v67.76c0,1.92-.68,3.77-1.9,5.23l-.29.34H1.03V0h346.45Z"/>
      <path class="cls-2" d="M241.68,216.88h-114.65l107.55-130.26,10.98-13.28h99.73l-109.81,130.2c-4.46,5.28-.71,13.34,6.2,13.34Z"/>
      <path class="cls-1" d="M335.2,216.88v73.35H0v-67.81c0-1.9.66-3.72,1.85-5.18l.29-.35h333.06Z"/>
    </g>
  </g>
</svg>