<?xml version="1.0" encoding="UTF-8"?>
<svg id="Layer_2" data-name="Layer 2" xmlns="http://www.w3.org/2000/svg" viewBox="0 0 343.44 286.86">
  <defs>
    <style>
      .cls-1 {
        fill: #c29e93;
      }

      .cls-2 {
        fill: #d3d3d3;
      }
    </style>
  </defs>
  <g id="Layer_2-2" data-name="Layer 2">
    <g>
      <path class="cls-1" d="M217.84,72.48l-66.23,78.54-42.32,50.18-11.1,13.16H2.12L108.42,85.61c4.31-5.22.59-13.12-6.19-13.12h115.61Z"/>
      <path class="cls-2" d="M343.44,0v66.98c0,1.89-.67,3.72-1.88,5.17l-.29.33H1.02V0h342.43Z"/>
      <path class="cls-1" d="M238.87,214.36h-113.32l106.3-128.75,10.85-13.12h98.57l-108.53,128.69c-4.41,5.22-.7,13.19,6.12,13.19Z"/>
      <path class="cls-2" d="M331.31,214.36v72.5H0v-67.02c0-.24.02-.48.03-.72.05-.46.13-.91.24-1.35.11-.45.27-.87.46-1.29.19-.43.41-.83.68-1.21.13-.19.27-.38.41-.56l.29-.35h329.19Z"/>
    </g>
  </g>
</svg>