<?xml version="1.0" encoding="UTF-8"?>
<svg id="Layer_2" data-name="Layer 2" xmlns="http://www.w3.org/2000/svg" viewBox="0 0 709.99 242.2">
  <defs>
    <style>
      .cls-1 {
        fill: #c1351a;
      }

      .cls-2 {
        fill: #903b2e;
      }
    </style>
  </defs>
  <g id="Layer_2-2" data-name="Layer 2">
    <g>
      <path class="cls-1" d="M55.37,0v239.61H0V0h55.37Z"/>
      <path class="cls-1" d="M91.75,100.05c7.01-14.03,16.56-24.82,28.66-32.38,12.09-7.55,25.58-11.33,40.47-11.33,12.73,0,23.91,2.59,33.51,7.77,9.6,5.18,17,11.98,22.18,20.4v-25.58h55.37v180.68h-55.37v-25.58c-5.4,8.42-12.9,15.22-22.5,20.4-9.61,5.18-20.78,7.77-33.51,7.77-14.68,0-28.06-3.83-40.15-11.5-12.09-7.66-21.64-18.56-28.66-32.7-7.02-14.14-10.52-30.49-10.52-49.05s3.51-34.86,10.52-48.89ZM205.07,116.56c-7.66-7.98-17-11.98-28.01-11.98s-20.35,3.94-28.01,11.82c-7.66,7.88-11.49,18.73-11.49,32.54s3.83,24.77,11.49,32.86c7.66,8.09,17,12.14,28.01,12.14s20.34-3.99,28.01-11.98c7.66-7.98,11.49-18.89,11.49-32.7s-3.83-24.71-11.49-32.7Z"/>
      <path class="cls-1" d="M567.68,230.86c-14.14-7.55-25.26-18.35-33.35-32.38-8.09-14.03-12.14-30.44-12.14-49.22s4.1-34.91,12.31-49.05c8.2-14.13,19.43-24.98,33.67-32.54,14.25-7.55,30.22-11.33,47.92-11.33s33.67,3.78,47.92,11.33c14.25,7.56,25.47,18.41,33.67,32.54,8.2,14.14,12.3,30.49,12.3,49.05s-4.16,34.92-12.47,49.05c-8.31,14.14-19.64,24.99-34,32.54-14.36,7.56-30.38,11.33-48.08,11.33s-33.62-3.77-47.76-11.33ZM642.48,182.62c7.45-7.77,11.17-18.89,11.17-33.35s-3.62-25.58-10.85-33.35c-7.24-7.77-16.14-11.66-26.71-11.66s-19.75,3.83-26.87,11.49c-7.12,7.66-10.69,18.84-10.69,33.51s3.51,25.58,10.52,33.35c7.01,7.77,15.81,11.66,26.39,11.66s19.59-3.88,27.04-11.66Z"/>
      <g>
        <path class="cls-2" d="M434.36,104.58l-41.72,49.47-26.66,31.61-6.99,8.29h-60.51l66.96-81.1c2.72-3.29.37-8.27-3.9-8.27h72.82Z"/>
        <path class="cls-1" d="M513.47,58.93v42.19c0,1.19-.42,2.34-1.18,3.26l-.18.21h-214.32v-45.65h215.69Z"/>
        <path class="cls-2" d="M447.61,193.95h-71.38l66.96-81.1,6.83-8.27h62.09l-68.36,81.06c-2.78,3.29-.44,8.31,3.86,8.31Z"/>
        <path class="cls-1" d="M505.83,193.95v45.66h-208.68v-42.22c0-1.18.41-2.31,1.15-3.23l.18-.22h207.35Z"/>
      </g>
    </g>
  </g>
</svg>